Coordinates
version=1
nRows=17
nColumns=24
inDegrees=yes

Units are S.I. units (second, meters, Newtons, ...)
Angles are in degrees.

endheader
time	pelvis_tilt	pelvis_list	pelvis_rotation	pelvis_tx	pelvis_ty	pelvis_tz	hip_flexion_r	hip_adduction_r	hip_rotation_r	knee_angle_r	ankle_angle_r	subtalar_angle_r	mtp_angle_r	hip_flexion_l	hip_adduction_l	hip_rotation_l	knee_angle_l	ankle_angle_l	subtalar_angle_l	mtp_angle_l	lumbar_extension	lumbar_bending	lumbar_rotation
      4.93500000	    -16.55649159	      5.29359216	     -2.33040001	     -0.77026044	     -0.01677342	     -0.40215755	     35.24293218	     -4.92152377	     -0.18872374	    -60.94021980	     -1.23606451	    -13.84517591	     19.63210284	     22.76847127	      6.00377370	     -8.37821228	    -21.45370920	      7.79930109	     -3.94251657	      1.50956110	     22.19606962	     -7.15112168	    -10.22789803
      4.94000000	    -16.54259194	      4.98063644	     -2.10008086	     -0.76458672	     -0.01570894	     -0.40275310	     35.76319783	     -4.70205466	     -0.75669620	    -60.04211816	     -0.81458530	    -13.77424599	     19.14074134	     21.95461285	      5.86553614	     -8.10700463	    -20.74128208	      7.78110249	     -3.75385673	      1.45813275	     22.09919301	     -6.94066866	    -10.62236373
      4.94500000	    -16.52732242	      4.67804970	     -1.87081508	     -0.75893791	     -0.01472575	     -0.40334286	     36.26674025	     -4.50608453	     -1.32885201	    -59.08767762	     -0.42404774	    -13.69157836	     18.60114290	     21.14149492	      5.72675439	     -7.85912314	    -20.02313890	      7.76262682	     -3.54796746	      1.42895064	     21.99894819	     -6.73816946	    -11.01453644
      4.95000000	    -16.46565737	      4.42238103	     -1.63915277	     -0.75330270	     -0.01380668	     -0.40386336	     36.71264106	     -4.36407990	     -1.89697126	    -58.10414002	     -0.04824343	    -13.63860539	     17.79943725	     20.26671140	      5.62674699	     -7.59634822	    -19.27529135	      7.74948023	     -3.31149483	      1.44179821	     21.84792856	     -6.59620261	    -11.41207052
      4.95500000	    -16.42315330	      4.15374585	     -1.48310904	     -0.74764212	     -0.01295954	     -0.40432870	     37.16539787	     -4.17766133	     -2.42295090	    -57.06850844	      0.29414786	    -13.44411159	     16.62117412	     19.40679525	      5.47932892	     -7.44961050	    -18.51012326	      7.68605635	     -3.15206601	      1.50940159	     21.73186243	     -6.39591777	    -11.66819305
      4.96000000	    -16.51594809	      3.89822985	     -1.25820573	     -0.74206471	     -0.01235352	     -0.40487062	     37.74360559	     -4.05241082	     -2.96109750	    -55.95115556	      0.61373591	    -13.27104798	     16.39814856	     18.73660689	      5.34402310	     -7.33158797	    -17.81709125	      7.66638518	     -2.85041829	      1.52845733	     21.74499134	     -6.23211748	    -12.05372252
      4.96500000	    -16.50391691	      3.62564152	     -1.04597150	     -0.73645316	     -0.01169765	     -0.40534821	     38.16925940	     -3.91562812	     -3.53064054	    -54.75652552	      0.87167157	    -13.18088226	     16.04310797	     17.93165351	      5.18701112	     -7.18093603	    -17.08598673	      7.64538873	     -2.58556122	      1.56413166	     21.64898701	     -6.06130405	    -12.42401732
      4.97000000	    -16.42580927	      3.39977036	     -0.85090704	     -0.73086980	     -0.01108585	     -0.40579806	     38.51679291	     -3.82309931	     -4.07834428	    -53.53639927	      1.12832772	    -13.09108506	     15.45402447	     17.04290718	      5.06889039	     -7.02963799	    -16.32229358	      7.61385082	     -2.29102509	      1.67504127	     21.47836664	     -5.92252547	    -12.74929464
      4.97500000	    -16.44653495	      3.16011293	     -0.67329870	     -0.72527519	     -0.01064574	     -0.40626011	     38.94801100	     -3.71618493	     -4.60930710	    -52.25400988	      1.34700486	    -12.91230484	     15.04337248	     16.28532973	      4.92235416	     -6.98831038	    -15.60137222	      7.57576948	     -2.02734291	      1.74934076	     21.41999505	     -5.75289925	    -13.08128800
      4.98000000	    -16.39350683	      2.94832253	     -0.50804970	     -0.71967221	     -0.01022834	     -0.40662139	     39.27850647	     -3.62808238	     -5.13612944	    -50.92954093	      1.54637343	    -12.78331886	     14.49678079	     15.43368514	      4.79269339	     -6.91299543	    -14.85516594	      7.54515088	     -1.73459317	      1.88393060	     21.28578079	     -5.62217054	    -13.34768605
      4.98500000	    -16.40715429	      2.73444748	     -0.34675554	     -0.71408966	     -0.00995384	     -0.40699442	     39.65952046	     -3.54040329	     -5.64645954	    -49.55061154	      1.71197631	    -12.60293993	     14.11655734	     14.68303640	      4.65429101	     -6.91734773	    -14.15623705	      7.50306269	     -1.46260847	      1.97518272	     21.21950331	     -5.48178397	    -13.65525910
      4.99000000	    -16.36809232	      2.52540313	     -0.20007512	     -0.70848183	     -0.00972438	     -0.40735480	     39.95987760	     -3.46179327	     -6.18017961	    -48.12802617	      1.84924070	    -12.44040598	     13.69974940	     13.87369412	      4.51541989	     -6.91791646	    -13.45830277	      7.48693621	     -1.17456737	      2.10630748	     21.10045914	     -5.33310880	    -13.90987770
      4.99500000	    -16.39445389	      2.33097043	     -0.07161105	     -0.70289367	     -0.00964406	     -0.40765526	     40.31116251	     -3.37018029	     -6.63994061	    -46.65473105	      1.96334543	    -12.23386183	     13.41994654	     13.15853378	      4.38130449	     -6.95305368	    -12.80219704	      7.46391976	     -0.91088294	      2.19245176	     21.05370400	     -5.19596364	    -14.18599093
      5.00000000	    -16.38165163	      2.12938426	      0.06354792	     -0.69729009	     -0.00962945	     -0.40796772	     40.59709576	     -3.29573390	     -7.16777066	    -45.14821072	      2.05068639	    -12.03940901	     13.15276722	     12.40805518	      4.24019386	     -7.00793925	    -12.15710417	      7.48308459	     -0.63591262	      2.30267049	     20.95973709	     -5.04927770	    -14.43736175
      5.00500000	    -16.35429289	      1.93204045	      0.18101712	     -0.69167106	     -0.00967057	     -0.40822682	     40.83927928	     -3.21898437	     -7.71270348	    -43.59002396	      2.10904949	    -11.81617460	     12.91197989	     11.66935567	      4.09212075	     -7.07998808	    -11.56892139	      7.50408346	     -0.35584950	      2.43450408	     20.85806354	     -4.90528936	    -14.67999611
      5.01000000	    -16.32508582	      1.72797910	      0.30287855	     -0.68606541	     -0.00978751	     -0.40850812	     41.05422215	     -3.14400248	     -8.27957264	    -41.99135226	      2.13579063	    -11.56134317	     12.71166609	     10.95874801	      3.93814392	     -7.19372219	    -11.02888450	      7.53213565	     -0.09636143	      2.58216178	     20.74753507	     -4.74535794	    -14.89330400
      5.01500000	    -16.34187607	      1.52665099	      0.41652893	     -0.68043821	     -0.01004958	     -0.40873090	     41.28973097	     -3.04903930	     -8.79324897	    -40.34858757	      2.17282606	    -11.25542878	     12.59956179	     10.31834894	      3.77997659	     -7.27678863	    -10.53508340	      7.59859334	      0.15051173	      2.70267379	     20.69164391	     -4.59028808	    -15.13184116
